PERFORMER "Tiësto"
TITLE "Essential Mix (2006-07-29) (Live @ Global Gathering 2006) [MApower]"
FILE "Tiesto_-_Essential_Mix_Global_Gathering_(BBC_Radio1)_SAT_29-07-2006_MApower.mp3" MP3
  TRACK 01 AUDIO
    PERFORMER "Booka Shade"
    TITLE "In White Rooms"
    INDEX 01 00:00:00
  TRACK 02 AUDIO
    PERFORMER "Cygnus X"
    TITLE "Orange Theme (Remix)"
    INDEX 01 05:50:45
  TRACK 03 AUDIO
    PERFORMER "Viridian"
    TITLE "Sunhump (Richard Durand Remix)"
    INDEX 01 10:19:09
  TRACK 04 AUDIO
    PERFORMER "Electro Prompt"
    TITLE "Beside Me (Gothek D.C. Remix)"
    INDEX 01 16:28:54
  TRACK 05 AUDIO
    PERFORMER "Tiësto"
    TITLE "Lethal Industry (Richard Durand Remix)"
    INDEX 01 23:43:14
  TRACK 06 AUDIO
    PERFORMER "Robbie Rivera"
    TITLE "Float Away (Gabriel & Dresden Edit)"
    INDEX 01 28:50:34
  TRACK 07 AUDIO
    PERFORMER "Kay D Smith vs. Marc Tall pres. Passive Resistance"
    TITLE "Praiseworthy Tunes (Hoipolloi Mix)"
    INDEX 01 33:29:06
  TRACK 08 AUDIO
    PERFORMER "Tiësto feat. Maxi Jazz"
    TITLE "Dance4Life"
    INDEX 01 35:22:67
  TRACK 09 AUDIO
    PERFORMER "Ekon vs. E-Craig vs. Way Out West"
    TITLE "Existence vs. 1st Time vs. The Fall"
    INDEX 01 41:59:34
  TRACK 10 AUDIO
    PERFORMER "Mac Zimms & Exelios"
    TITLE "World Of Life Anthem 2005 (Mac Zimms Remix)"
    INDEX 01 48:04:27
  TRACK 11 AUDIO
    PERFORMER "Carl B"
    TITLE "Social Suicide"
    INDEX 01 52:32:50
  TRACK 12 AUDIO
    PERFORMER "Klaus Badelt"
    TITLE "He's A Pirate (Tiësto Remix)"
    INDEX 01 58:05:45